<?xml version="1.0" encoding="UTF-8"?>
<svg width="300px" height="264px" viewBox="0 0 300 264" version="1.1" xmlns="http://www.w3.org/2000/svg" xmlns:xlink="http://www.w3.org/1999/xlink">
    <!-- Generator: Sketch 52.3 (67297) - http://www.bohemiancoding.com/sketch -->
    <title>icon-noper</title>
    <desc>Created with Sketch.</desc>
    <g id="Page-1" stroke="none" stroke-width="1" fill="none" fill-rule="evenodd">
        <g id="Group-5">
            <rect id="Rectangle" opacity="0.54250372" fill-rule="nonzero" x="0" y="0" width="300" height="264"></rect>
            <g id="Group-49" transform="translate(20.250000, 21.000000)">
                <polygon id="Fill-1" fill="#FFFFFF" points="7.03305 0 0.77655 3.636 202.6083 120.16425 208.8648 116.5275"></polygon>
                <polygon id="Stroke-2" stroke="#B2B2B2" stroke-width="2" stroke-linejoin="round" points="7.03305 0 0.77655 3.636 202.6083 120.16425 208.8648 116.5275"></polygon>
                <polygon id="Fill-4" fill="#FFFFFF" points="227.2452 207.32415 227.2077 222.07965 183.0642 196.59315 183.1017 181.83765"></polygon>
                <polygon id="Stroke-5" stroke="#B2B2B2" stroke-width="2" stroke-linejoin="round" points="227.2452 207.32415 227.2077 222.07965 183.0642 196.59315 183.1017 181.83765"></polygon>
                <polygon id="Fill-7" fill="#FFFFFF" points="227.2452 207.32415 267.85395 183.7254 267.81645 198.48015 227.2077 222.07965"></polygon>
                <polygon id="Stroke-8" stroke="#B2B2B2" stroke-width="2" stroke-linejoin="round" points="227.2452 207.32415 267.85395 183.7254 267.81645 198.48015 227.2077 222.07965"></polygon>
                <polygon id="Fill-10" fill="#FFFFFF" points="183.1014 181.837275 223.71015 158.238525 267.85365 183.725025 227.2449 207.323775"></polygon>
                <polygon id="Stroke-11" stroke="#B2B2B2" stroke-width="2" stroke-linejoin="round" points="183.1014 181.837275 223.71015 158.238525 267.85365 183.725025 227.2449 207.323775"></polygon>
                <g id="Group-2" transform="translate(1.000000, 24.000000)">
                    <polygon id="Fill-13" fill="#FFFFFF" points="25.897275 59.439125 25.875525 68.088125 0.000525 53.148875 0.021525 44.499875"></polygon>
                    <polygon id="Stroke-14" stroke="#B2B2B2" stroke-width="2" stroke-linejoin="round" points="25.897275 59.439125 25.875525 68.088125 0.000525 53.148875 0.021525 44.499875"></polygon>
                    <polygon id="Fill-16" fill="#FFFFFF" points="25.897275 59.439125 49.700025 45.606875 49.678275 54.255125 25.875525 68.088125"></polygon>
                    <polygon id="Stroke-17" stroke="#B2B2B2" stroke-width="2" stroke-linejoin="round" points="25.897275 59.439125 49.700025 45.606875 49.678275 54.255125 25.875525 68.088125"></polygon>
                    <polygon id="Fill-18" fill="#FFFFFF" points="0.021525 44.499875 23.824275 30.667625 49.700025 45.606875 25.897275 59.439125"></polygon>
                    <polygon id="Stroke-19" stroke="#B2B2B2" stroke-width="2" stroke-linejoin="round" points="0.021525 44.499875 23.824275 30.667625 49.700025 45.606875 25.897275 59.439125"></polygon>
                    <polygon id="Fill-23" fill="#FFFFFF" points="24.480075 15.8567 24.386325 51.9077 16.147575 47.15045 16.241325 11.09945"></polygon>
                    <polygon id="Stroke-24" stroke="#B2B2B2" stroke-width="2" stroke-linejoin="round" points="24.480075 5.8567 24.386325 51.9077 16.147575 47.15045 16.241325 1.09945"></polygon>
                    <polygon id="Fill-25" fill="#FFFFFF" points="24.480075 15.8567 33.575325 10.57145 33.481575 46.62245 24.386325 51.9077"></polygon>
                    <polygon id="Stroke-26" stroke="#B2B2B2" stroke-width="2" stroke-linejoin="round" points="24.480075 5.8567 33.575325 0.57145 33.481575 46.62245 24.386325 51.9077"></polygon>
                </g>
                <polygon id="Fill-21" fill="#FFFFFF" points="212.78355 140.8869 225.29805 133.6149 236.6343 140.1594 224.1198 147.43215"></polygon>
                <polygon id="Stroke-22" stroke="#B2B2B2" stroke-width="2" stroke-linejoin="round" points="212.78355 140.8869 225.29805 133.6149 236.6343 140.1594 224.1198 147.43215"></polygon>
                <polygon id="Fill-29" fill="#FFFFFF" points="0.7767 3.63615 0.7557 16.19865 202.58745 132.7269 202.6077 120.1644"></polygon>
                <polygon id="Stroke-30" stroke="#B2B2B2" stroke-width="2" stroke-linejoin="round" points="0.7767 3.63615 0.7557 16.19865 202.58745 132.7269 202.6077 120.1644"></polygon>
                <polygon id="Fill-31" fill="#2980FF" points="183.017925 109.8432 170.264175 113.00445 183.564675 120.6837 196.194675 117.55245 196.194675 117.4512"></polygon>
                <polygon id="Fill-32" fill="#2980FF" points="143.709525 97.672875 157.009275 105.352125 169.763025 102.190125 156.462525 94.511625"></polygon>
                <polygon id="Fill-33" fill="#2980FF" points="116.717625 82.08915 130.017375 89.76765 142.770375 86.6064 129.470625 78.9279"></polygon>
                <polygon id="Fill-34" fill="#2980FF" points="90.3555 66.869025 103.65525 74.548275 116.409 71.386275 103.10925 63.707775"></polygon>
                <polygon id="Fill-35" fill="#2980FF" points="63.109425 51.13845 76.409175 58.8177 89.162925 55.6557 75.862425 47.9772"></polygon>
                <polygon id="Fill-36" fill="#2980FF" points="35.223225 35.037975 48.522975 42.717225 61.275975 39.555225 47.976225 31.876725"></polygon>
                <polygon id="Fill-37" fill="#2980FF" points="7.1685 18.840825 20.469 26.520075 33.222 23.358075 19.92225 15.679575"></polygon>
                <polygon id="Fill-38" fill="#FFFFFF" points="231.43395 123.732825 248.07495 114.061575 247.97895 187.065825 231.3372 196.737075"></polygon>
                <polygon id="Stroke-39" stroke="#B2B2B2" stroke-width="2" stroke-linejoin="round" points="231.43395 123.732825 248.07495 114.061575 247.97895 187.065825 231.3372 196.737075"></polygon>
                <g id="Group-48" transform="translate(201.000000, 93.829500)">
                    <path d="M15.38265,12.8562 C26.2014,19.1022 30.22215,29.3637 30.43365,29.90295 L30.3369,102.9072 L0.1869,85.50045 L0.28365,12.4962 C0.4974,12.2022 4.5684,6.61245 15.38265,12.8562" id="Fill-40" fill="#FFFFFF"></path>
                    <path d="M15.38265,12.8562 C26.2014,19.1022 30.22215,29.3637 30.43365,29.90295 L30.3369,102.9072 L0.1869,85.50045 L0.28365,12.4962 C0.4974,12.2022 4.5684,6.61245 15.38265,12.8562 Z" id="Stroke-42" stroke="#B2B2B2" stroke-width="2" stroke-linejoin="round"></path>
                    <path d="M16.96245,13.8318 C17.13495,13.94505 17.3097,14.0583 17.47845,14.17305 C17.6247,14.27205 17.7672,14.37255 17.91045,14.4723 C18.0792,14.59155 18.24795,14.71005 18.4137,14.83005 C18.5517,14.93055 18.6867,15.03255 18.8217,15.1338 C18.9912,15.26055 19.1592,15.3873 19.3227,15.51555 C19.4532,15.6168 19.58145,15.71955 19.70895,15.82155 C19.8762,15.9558 20.0412,16.09005 20.20395,16.22505 C20.32695,16.3278 20.44845,16.4298 20.5692,16.53255 C20.73345,16.67355 20.89545,16.8153 21.0552,16.95705 C21.1677,17.0568 21.28095,17.15655 21.3912,17.2563 C21.55545,17.4063 21.71595,17.55705 21.8757,17.70705 C21.97695,17.8023 22.07895,17.89755 22.17795,17.9928 C22.3407,18.1503 22.49895,18.3078 22.65645,18.46605 C22.7427,18.55305 22.83195,18.64005 22.9167,18.72705 C23.1057,18.9198 23.2887,19.11255 23.46945,19.3053 C23.51595,19.35555 23.56545,19.40505 23.6112,19.4553 C23.8362,19.69755 24.0537,19.93905 24.26595,20.18055 C24.3147,20.23605 24.3597,20.2908 24.40845,20.3463 C24.57195,20.5353 24.7347,20.72355 24.89145,20.9118 C24.9582,20.99055 25.02045,21.0693 25.08495,21.14805 C25.2282,21.3228 25.36995,21.49605 25.5072,21.6693 C25.57245,21.75255 25.63695,21.8358 25.70145,21.91905 C25.8627,22.1253 26.01945,22.3308 26.17095,22.53405 C26.22045,22.60005 26.2707,22.6668 26.31945,22.7328 C26.63145,23.1558 26.9232,23.57055 27.19695,23.9733 C27.21945,24.0078 27.24345,24.0423 27.26595,24.07605 C27.4782,24.3918 27.67695,24.6978 27.8652,24.99705 C27.9012,25.05405 27.93795,25.11105 27.9732,25.1673 C28.1547,25.4583 28.32645,25.74255 28.48695,26.01555 C28.5252,26.0808 28.5612,26.1438 28.5987,26.20755 C28.67745,26.3448 28.75545,26.4798 28.82895,26.61105 C28.8687,26.68155 28.9077,26.7513 28.94595,26.81955 C29.01645,26.9493 29.08545,27.0753 29.15145,27.1983 C29.1807,27.25305 29.21145,27.30855 29.2392,27.36255 C29.3682,27.6048 29.4852,27.8328 29.59245,28.04655 C29.61195,28.0863 29.6322,28.12605 29.65095,28.16505 C29.7462,28.3578 29.83395,28.54005 29.91195,28.7043 C29.92245,28.72755 29.9322,28.74855 29.9427,28.77105 C30.01545,28.92855 30.08145,29.0733 30.1377,29.2008 C30.1452,29.21655 30.15345,29.2353 30.16095,29.25105 C30.2247,29.39505 30.2757,29.5173 30.3177,29.61705 C30.3237,29.6328 30.33195,29.65155 30.3387,29.66655 C30.3537,29.70555 30.3672,29.7378 30.37995,29.7678 C30.38595,29.78505 30.3957,29.8068 30.40095,29.82105 C30.4152,29.8563 30.4272,29.88705 30.43395,29.90355 L47.07495,20.2323 C47.0682,20.21505 47.0562,20.18505 47.04045,20.14605 C47.0367,20.13405 47.0307,20.1198 47.0247,20.1063 C47.0112,20.07405 46.9977,20.0388 46.97895,19.9953 C46.97595,19.98555 46.9737,19.9803 46.9692,19.9698 C46.96695,19.9638 46.96245,19.95405 46.95945,19.94805 C46.91745,19.8468 46.8657,19.7253 46.80045,19.57755 C46.7982,19.5723 46.79745,19.5693 46.7952,19.5648 C46.7907,19.5558 46.78545,19.54305 46.7817,19.5348 C46.7247,19.40505 46.6587,19.25955 46.5837,19.0998 C46.57545,19.08255 46.57095,19.0698 46.56195,19.0518 C46.55895,19.04655 46.5552,19.03905 46.55295,19.03305 C46.4757,18.8688 46.38795,18.6873 46.2927,18.49455 C46.28145,18.47205 46.2732,18.45405 46.2612,18.43005 C46.25295,18.4128 46.2417,18.3918 46.23195,18.37455 C46.12545,18.16005 46.0092,17.9328 45.8802,17.6898 C45.87195,17.67405 45.86595,17.6613 45.85695,17.64555 C45.83745,17.6088 45.81495,17.56755 45.79395,17.53005 C45.72795,17.40555 45.65895,17.2788 45.5862,17.14755 C45.5487,17.08005 45.51045,17.0118 45.47145,16.94205 C45.39645,16.80855 45.3177,16.6713 45.2367,16.53105 C45.20895,16.4838 45.18495,16.4388 45.15645,16.3908 C45.14745,16.37655 45.13695,16.3608 45.12945,16.34655 C44.96895,16.0728 44.7957,15.78855 44.61345,15.49605 C44.5782,15.4398 44.54295,15.3828 44.50695,15.3258 C44.3187,15.0273 44.11995,14.7213 43.9092,14.40705 C43.8987,14.39205 43.89045,14.37855 43.8807,14.3628 C43.86645,14.3433 43.8507,14.3208 43.83645,14.30055 C43.56345,13.8978 43.27245,13.48455 42.96045,13.06155 C42.9462,13.04205 42.9342,13.0233 42.91995,13.0038 C42.88545,12.9573 42.8472,12.91005 42.8127,12.8628 C42.66045,12.65955 42.50445,12.4548 42.3432,12.2478 C42.3042,12.19755 42.2682,12.14805 42.22845,12.09705 C42.2022,12.0648 42.1737,12.03105 42.14745,11.99805 C42.0117,11.8263 41.8722,11.65455 41.7297,11.4813 C41.6772,11.41755 41.6292,11.35455 41.5752,11.29005 C41.5617,11.27355 41.54595,11.2563 41.53245,11.23905 C41.37645,11.05305 41.21445,10.8648 41.05095,10.6773 C41.00745,10.6263 40.96545,10.5753 40.92045,10.5243 C40.91595,10.51905 40.91145,10.51455 40.9077,10.5093 C40.69545,10.26855 40.47795,10.0263 40.25295,9.78405 C40.2492,9.7803 40.24545,9.77655 40.2417,9.77205 C40.19895,9.7263 40.15395,9.68055 40.11045,9.6348 C39.9297,9.4413 39.74745,9.24855 39.55845,9.0558 C39.54345,9.0408 39.52995,9.02505 39.5142,9.0093 C39.44445,8.93805 39.3687,8.8668 39.29745,8.7948 C39.13995,8.6373 38.9817,8.4798 38.8197,8.3223 C38.7912,8.2953 38.7657,8.26905 38.73795,8.24205 C38.6652,8.17305 38.5887,8.1048 38.51595,8.03505 C38.35695,7.8858 38.1972,7.7358 38.0337,7.58655 C37.99095,7.5483 37.9512,7.5093 37.9092,7.47105 C37.83945,7.4088 37.7652,7.34655 37.69545,7.2843 C37.5357,7.1433 37.37445,7.0023 37.21095,6.86205 C37.1532,6.81255 37.09845,6.7623 37.0407,6.7128 C36.97695,6.65955 36.90945,6.6078 36.8457,6.5538 C36.68295,6.41955 36.51795,6.28455 36.3522,6.15105 C36.27945,6.0933 36.21045,6.03405 36.1362,5.97555 C36.07995,5.9313 36.0207,5.88855 35.9637,5.8443 C35.79945,5.71605 35.63295,5.5893 35.4642,5.4633 C35.37795,5.39805 35.2947,5.33205 35.20695,5.26755 C35.15745,5.2308 35.1042,5.19555 35.0547,5.15955 C34.8897,5.0388 34.7217,4.92105 34.55295,4.80255 C34.45395,4.73355 34.35795,4.66155 34.2582,4.5933 C34.21245,4.56255 34.1652,4.53255 34.11945,4.5018 C33.94995,4.38705 33.77745,4.27455 33.6042,4.1613 C33.49395,4.0893 33.38745,4.0158 33.2757,3.94455 C33.23445,3.9183 33.19095,3.89355 33.1497,3.8673 C32.97795,3.75855 32.80095,3.6528 32.62545,3.5463 C32.50395,3.4728 32.3862,3.39705 32.2632,3.32505 C32.1837,3.2778 32.10345,3.2313 32.02395,3.18555 C31.76145,3.03405 31.50495,2.89005 31.2507,2.7528 C31.14195,2.69355 31.0392,2.64405 30.93195,2.58705 C30.8082,2.5218 30.68445,2.45805 30.56295,2.3958 C30.47145,2.3493 30.3762,2.29755 30.28545,2.25255 C30.08895,2.15505 29.89845,2.0688 29.70645,1.97955 C29.62545,1.9413 29.5422,1.9008 29.4627,1.86405 C29.43495,1.85205 29.40645,1.83705 29.37945,1.82505 C29.0832,1.6923 28.7937,1.57005 28.5102,1.4568 C28.4817,1.4448 28.4547,1.4358 28.4262,1.42455 C28.34745,1.3938 28.27095,1.3668 28.1937,1.3368 C28.02045,1.2708 27.84645,1.2018 27.6777,1.1433 C27.5937,1.1133 27.51345,1.09005 27.4302,1.06155 C27.3252,1.0263 27.2217,0.99255 27.1182,0.95955 C27.03345,0.93255 26.94645,0.90105 26.86245,0.8763 C26.7177,0.83205 26.57895,0.79755 26.4372,0.75855 C26.34945,0.73455 26.25945,0.70755 26.17245,0.6858 C26.1387,0.6768 26.10345,0.66555 26.0697,0.6573 C25.8012,0.5898 25.54095,0.53205 25.28595,0.48255 C25.2852,0.48255 25.2837,0.48255 25.28295,0.4818 C25.27395,0.4803 25.2657,0.47955 25.25745,0.47805 C24.9957,0.4278 24.7407,0.38505 24.49245,0.35205 C24.47145,0.34905 24.4512,0.3483 24.42945,0.3453 C24.3177,0.33105 24.21195,0.3228 24.1032,0.3123 C23.96745,0.29805 23.82795,0.2793 23.6967,0.2703 C23.6667,0.2688 23.6397,0.26955 23.6097,0.26805 C23.4657,0.2583 23.3277,0.2568 23.18895,0.2538 C23.0877,0.25155 22.9812,0.2433 22.8837,0.2433 C22.85895,0.2433 22.8372,0.2463 22.8132,0.24705 C22.57995,0.2493 22.35645,0.26055 22.1397,0.2778 C22.1022,0.2808 22.06095,0.28005 22.02345,0.28305 C22.01895,0.2838 22.0152,0.28455 22.01145,0.2853 C21.71145,0.3123 21.43095,0.3558 21.16095,0.4068 C21.13245,0.41205 21.09945,0.41355 21.0717,0.41955 C20.9997,0.4338 20.93445,0.45255 20.8647,0.4683 C20.7717,0.48855 20.67945,0.50955 20.59095,0.5328 C20.48595,0.5598 20.38545,0.5898 20.28645,0.6198 C20.2017,0.6453 20.11695,0.67005 20.0367,0.6978 C20.0112,0.7068 19.9827,0.71355 19.95795,0.72255 C19.91595,0.7368 19.8822,0.7548 19.84095,0.7698 C19.68045,0.82905 19.5267,0.8913 19.3812,0.95655 C19.32495,0.9813 19.26945,1.0053 19.2162,1.0308 C19.03245,1.11855 18.8562,1.20855 18.69645,1.30155 L2.0547,10.97205 C2.2152,10.87905 2.3907,10.78905 2.57445,10.70205 C2.62845,10.67655 2.6847,10.6518 2.73945,10.6278 C2.8857,10.5618 3.03945,10.5003 3.1992,10.44105 C3.26445,10.4163 3.32745,10.39155 3.39495,10.3683 C3.47595,10.3413 3.5607,10.31655 3.64395,10.29105 C3.74445,10.2603 3.84495,10.23105 3.9492,10.2033 C4.03845,10.18005 4.13145,10.1598 4.2237,10.1388 C4.32045,10.11705 4.41795,10.0968 4.5192,10.0773 C4.78995,10.0263 5.0712,9.9828 5.37045,9.9558 C5.4117,9.95205 5.4567,9.95205 5.4987,9.9483 C5.71545,9.9318 5.93895,9.9198 6.17145,9.91755 C6.29295,9.91605 6.4212,9.9213 6.5472,9.9243 C6.6867,9.9273 6.82395,9.92955 6.96945,9.93855 C7.1292,9.9483 7.29495,9.96555 7.46145,9.9828 C7.57095,9.99405 7.67595,10.0023 7.78845,10.01655 C8.0562,10.05105 8.33145,10.09455 8.6157,10.14855 C8.6247,10.15005 8.63295,10.15155 8.6412,10.15305 C8.92845,10.20855 9.22695,10.2783 9.53145,10.3563 C9.6177,10.3788 9.7077,10.4058 9.79545,10.42905 C10.0182,10.49055 10.2447,10.55655 10.47645,10.63005 C10.57995,10.66305 10.6842,10.69755 10.78995,10.7328 C11.0382,10.8168 11.29245,10.90905 11.5512,11.0073 C11.62995,11.0373 11.7057,11.0643 11.7852,11.0958 C12.12195,11.22855 12.46695,11.37555 12.8217,11.5353 C12.9012,11.5713 12.98445,11.61255 13.06545,11.65005 C13.3452,11.78055 13.63095,11.9193 13.9212,12.06705 C14.0427,12.12855 14.16645,12.19305 14.2902,12.2583 C14.64795,12.44655 15.00945,12.6408 15.38295,12.85605 C15.58695,12.9738 15.7842,13.0968 15.9837,13.21755 C16.15995,13.3233 16.3362,13.4298 16.5087,13.5378 C16.66245,13.63455 16.8117,13.73355 16.96245,13.8318" id="Fill-44" fill="#FFFFFF"></path>
                    <path d="M16.96245,13.8318 C17.13495,13.94505 17.3097,14.0583 17.47845,14.17305 C17.6247,14.27205 17.7672,14.37255 17.91045,14.4723 C18.0792,14.59155 18.24795,14.71005 18.4137,14.83005 C18.5517,14.93055 18.6867,15.03255 18.8217,15.1338 C18.9912,15.26055 19.1592,15.3873 19.3227,15.51555 C19.4532,15.6168 19.58145,15.71955 19.70895,15.82155 C19.8762,15.9558 20.0412,16.09005 20.20395,16.22505 C20.32695,16.3278 20.44845,16.4298 20.5692,16.53255 C20.73345,16.67355 20.89545,16.8153 21.0552,16.95705 C21.1677,17.0568 21.28095,17.15655 21.3912,17.2563 C21.55545,17.4063 21.71595,17.55705 21.8757,17.70705 C21.97695,17.8023 22.07895,17.89755 22.17795,17.9928 C22.3407,18.1503 22.49895,18.3078 22.65645,18.46605 C22.7427,18.55305 22.83195,18.64005 22.9167,18.72705 C23.1057,18.9198 23.2887,19.11255 23.46945,19.3053 C23.51595,19.35555 23.56545,19.40505 23.6112,19.4553 C23.8362,19.69755 24.0537,19.93905 24.26595,20.18055 C24.3147,20.23605 24.3597,20.2908 24.40845,20.3463 C24.57195,20.5353 24.7347,20.72355 24.89145,20.9118 C24.9582,20.99055 25.02045,21.0693 25.08495,21.14805 C25.2282,21.3228 25.36995,21.49605 25.5072,21.6693 C25.57245,21.75255 25.63695,21.8358 25.70145,21.91905 C25.8627,22.1253 26.01945,22.3308 26.17095,22.53405 C26.22045,22.60005 26.2707,22.6668 26.31945,22.7328 C26.63145,23.1558 26.9232,23.57055 27.19695,23.9733 C27.21945,24.0078 27.24345,24.0423 27.26595,24.07605 C27.4782,24.3918 27.67695,24.6978 27.8652,24.99705 C27.9012,25.05405 27.93795,25.11105 27.9732,25.1673 C28.1547,25.4583 28.32645,25.74255 28.48695,26.01555 C28.5252,26.0808 28.5612,26.1438 28.5987,26.20755 C28.67745,26.3448 28.75545,26.4798 28.82895,26.61105 C28.8687,26.68155 28.9077,26.7513 28.94595,26.81955 C29.01645,26.9493 29.08545,27.0753 29.15145,27.1983 C29.1807,27.25305 29.21145,27.30855 29.2392,27.36255 C29.3682,27.6048 29.4852,27.8328 29.59245,28.04655 C29.61195,28.0863 29.6322,28.12605 29.65095,28.16505 C29.7462,28.3578 29.83395,28.54005 29.91195,28.7043 C29.92245,28.72755 29.9322,28.74855 29.9427,28.77105 C30.01545,28.92855 30.08145,29.0733 30.1377,29.2008 C30.1452,29.21655 30.15345,29.2353 30.16095,29.25105 C30.2247,29.39505 30.2757,29.5173 30.3177,29.61705 C30.3237,29.6328 30.33195,29.65155 30.3387,29.66655 C30.3537,29.70555 30.3672,29.7378 30.37995,29.7678 C30.38595,29.78505 30.3957,29.8068 30.40095,29.82105 C30.4152,29.8563 30.4272,29.88705 30.43395,29.90355 L47.07495,20.2323 C47.0682,20.21505 47.0562,20.18505 47.04045,20.14605 C47.0367,20.13405 47.0307,20.1198 47.0247,20.1063 C47.0112,20.07405 46.9977,20.0388 46.97895,19.9953 C46.97595,19.98555 46.9737,19.9803 46.9692,19.9698 C46.96695,19.9638 46.96245,19.95405 46.95945,19.94805 C46.91745,19.8468 46.8657,19.7253 46.80045,19.57755 C46.7982,19.5723 46.79745,19.5693 46.7952,19.5648 C46.7907,19.5558 46.78545,19.54305 46.7817,19.5348 C46.7247,19.40505 46.6587,19.25955 46.5837,19.0998 C46.57545,19.08255 46.57095,19.0698 46.56195,19.0518 C46.55895,19.04655 46.5552,19.03905 46.55295,19.03305 C46.4757,18.8688 46.38795,18.6873 46.2927,18.49455 C46.28145,18.47205 46.2732,18.45405 46.2612,18.43005 C46.25295,18.4128 46.2417,18.3918 46.23195,18.37455 C46.12545,18.16005 46.0092,17.9328 45.8802,17.6898 C45.87195,17.67405 45.86595,17.6613 45.85695,17.64555 C45.83745,17.6088 45.81495,17.56755 45.79395,17.53005 C45.72795,17.40555 45.65895,17.2788 45.5862,17.14755 C45.5487,17.08005 45.51045,17.0118 45.47145,16.94205 C45.39645,16.80855 45.3177,16.6713 45.2367,16.53105 C45.20895,16.4838 45.18495,16.4388 45.15645,16.3908 C45.14745,16.37655 45.13695,16.3608 45.12945,16.34655 C44.96895,16.0728 44.7957,15.78855 44.61345,15.49605 C44.5782,15.4398 44.54295,15.3828 44.50695,15.3258 C44.3187,15.0273 44.11995,14.7213 43.9092,14.40705 C43.8987,14.39205 43.89045,14.37855 43.8807,14.3628 C43.86645,14.3433 43.8507,14.3208 43.83645,14.30055 C43.56345,13.8978 43.27245,13.48455 42.96045,13.06155 C42.9462,13.04205 42.9342,13.0233 42.91995,13.0038 C42.88545,12.9573 42.8472,12.91005 42.8127,12.8628 C42.66045,12.65955 42.50445,12.4548 42.3432,12.2478 C42.3042,12.19755 42.2682,12.14805 42.22845,12.09705 C42.2022,12.0648 42.1737,12.03105 42.14745,11.99805 C42.0117,11.8263 41.8722,11.65455 41.7297,11.4813 C41.6772,11.41755 41.6292,11.35455 41.5752,11.29005 C41.5617,11.27355 41.54595,11.2563 41.53245,11.23905 C41.37645,11.05305 41.21445,10.8648 41.05095,10.6773 C41.00745,10.6263 40.96545,10.5753 40.92045,10.5243 C40.91595,10.51905 40.91145,10.51455 40.9077,10.5093 C40.69545,10.26855 40.47795,10.0263 40.25295,9.78405 C40.2492,9.7803 40.24545,9.77655 40.2417,9.77205 C40.19895,9.7263 40.15395,9.68055 40.11045,9.6348 C39.9297,9.4413 39.74745,9.24855 39.55845,9.0558 C39.54345,9.0408 39.52995,9.02505 39.5142,9.0093 C39.44445,8.93805 39.3687,8.8668 39.29745,8.7948 C39.13995,8.6373 38.9817,8.4798 38.8197,8.3223 C38.7912,8.2953 38.7657,8.26905 38.73795,8.24205 C38.6652,8.17305 38.5887,8.1048 38.51595,8.03505 C38.35695,7.8858 38.1972,7.7358 38.0337,7.58655 C37.99095,7.5483 37.9512,7.5093 37.9092,7.47105 C37.83945,7.4088 37.7652,7.34655 37.69545,7.2843 C37.5357,7.1433 37.37445,7.0023 37.21095,6.86205 C37.1532,6.81255 37.09845,6.7623 37.0407,6.7128 C36.97695,6.65955 36.90945,6.6078 36.8457,6.5538 C36.68295,6.41955 36.51795,6.28455 36.3522,6.15105 C36.27945,6.0933 36.21045,6.03405 36.1362,5.97555 C36.07995,5.9313 36.0207,5.88855 35.9637,5.8443 C35.79945,5.71605 35.63295,5.5893 35.4642,5.4633 C35.37795,5.39805 35.2947,5.33205 35.20695,5.26755 C35.15745,5.2308 35.1042,5.19555 35.0547,5.15955 C34.8897,5.0388 34.7217,4.92105 34.55295,4.80255 C34.45395,4.73355 34.35795,4.66155 34.2582,4.5933 C34.21245,4.56255 34.1652,4.53255 34.11945,4.5018 C33.94995,4.38705 33.77745,4.27455 33.6042,4.1613 C33.49395,4.0893 33.38745,4.0158 33.2757,3.94455 C33.23445,3.9183 33.19095,3.89355 33.1497,3.8673 C32.97795,3.75855 32.80095,3.6528 32.62545,3.5463 C32.50395,3.4728 32.3862,3.39705 32.2632,3.32505 C32.1837,3.2778 32.10345,3.2313 32.02395,3.18555 C31.76145,3.03405 31.50495,2.89005 31.2507,2.7528 C31.14195,2.69355 31.0392,2.64405 30.93195,2.58705 C30.8082,2.5218 30.68445,2.45805 30.56295,2.3958 C30.47145,2.3493 30.3762,2.29755 30.28545,2.25255 C30.08895,2.15505 29.89845,2.0688 29.70645,1.97955 C29.62545,1.9413 29.5422,1.9008 29.4627,1.86405 C29.43495,1.85205 29.40645,1.83705 29.37945,1.82505 C29.0832,1.6923 28.7937,1.57005 28.5102,1.4568 C28.4817,1.4448 28.4547,1.4358 28.4262,1.42455 C28.34745,1.3938 28.27095,1.3668 28.1937,1.3368 C28.02045,1.2708 27.84645,1.2018 27.6777,1.1433 C27.5937,1.1133 27.51345,1.09005 27.4302,1.06155 C27.3252,1.0263 27.2217,0.99255 27.1182,0.95955 C27.03345,0.93255 26.94645,0.90105 26.86245,0.8763 C26.7177,0.83205 26.57895,0.79755 26.4372,0.75855 C26.34945,0.73455 26.25945,0.70755 26.17245,0.6858 C26.1387,0.6768 26.10345,0.66555 26.0697,0.6573 C25.8012,0.5898 25.54095,0.53205 25.28595,0.48255 C25.2852,0.48255 25.2837,0.48255 25.28295,0.4818 C25.27395,0.4803 25.2657,0.47955 25.25745,0.47805 C24.9957,0.4278 24.7407,0.38505 24.49245,0.35205 C24.47145,0.34905 24.4512,0.3483 24.42945,0.3453 C24.3177,0.33105 24.21195,0.3228 24.1032,0.3123 C23.96745,0.29805 23.82795,0.2793 23.6967,0.2703 C23.6667,0.2688 23.6397,0.26955 23.6097,0.26805 C23.4657,0.2583 23.3277,0.2568 23.18895,0.2538 C23.0877,0.25155 22.9812,0.2433 22.8837,0.2433 C22.85895,0.2433 22.8372,0.2463 22.8132,0.24705 C22.57995,0.2493 22.35645,0.26055 22.1397,0.2778 C22.1022,0.2808 22.06095,0.28005 22.02345,0.28305 C22.01895,0.2838 22.0152,0.28455 22.01145,0.2853 C21.71145,0.3123 21.43095,0.3558 21.16095,0.4068 C21.13245,0.41205 21.09945,0.41355 21.0717,0.41955 C20.9997,0.4338 20.93445,0.45255 20.8647,0.4683 C20.7717,0.48855 20.67945,0.50955 20.59095,0.5328 C20.48595,0.5598 20.38545,0.5898 20.28645,0.6198 C20.2017,0.6453 20.11695,0.67005 20.0367,0.6978 C20.0112,0.7068 19.9827,0.71355 19.95795,0.72255 C19.91595,0.7368 19.8822,0.7548 19.84095,0.7698 C19.68045,0.82905 19.5267,0.8913 19.3812,0.95655 C19.32495,0.9813 19.26945,1.0053 19.2162,1.0308 C19.03245,1.11855 18.8562,1.20855 18.69645,1.30155 L2.0547,10.97205 C2.2152,10.87905 2.3907,10.78905 2.57445,10.70205 C2.62845,10.67655 2.6847,10.6518 2.73945,10.6278 C2.8857,10.5618 3.03945,10.5003 3.1992,10.44105 C3.26445,10.4163 3.32745,10.39155 3.39495,10.3683 C3.47595,10.3413 3.5607,10.31655 3.64395,10.29105 C3.74445,10.2603 3.84495,10.23105 3.9492,10.2033 C4.03845,10.18005 4.13145,10.1598 4.2237,10.1388 C4.32045,10.11705 4.41795,10.0968 4.5192,10.0773 C4.78995,10.0263 5.0712,9.9828 5.37045,9.9558 C5.4117,9.95205 5.4567,9.95205 5.4987,9.9483 C5.71545,9.9318 5.93895,9.9198 6.17145,9.91755 C6.29295,9.91605 6.4212,9.9213 6.5472,9.9243 C6.6867,9.9273 6.82395,9.92955 6.96945,9.93855 C7.1292,9.9483 7.29495,9.96555 7.46145,9.9828 C7.57095,9.99405 7.67595,10.0023 7.78845,10.01655 C8.0562,10.05105 8.33145,10.09455 8.6157,10.14855 C8.6247,10.15005 8.63295,10.15155 8.6412,10.15305 C8.92845,10.20855 9.22695,10.2783 9.53145,10.3563 C9.6177,10.3788 9.7077,10.4058 9.79545,10.42905 C10.0182,10.49055 10.2447,10.55655 10.47645,10.63005 C10.57995,10.66305 10.6842,10.69755 10.78995,10.7328 C11.0382,10.8168 11.29245,10.90905 11.5512,11.0073 C11.62995,11.0373 11.7057,11.0643 11.7852,11.0958 C12.12195,11.22855 12.46695,11.37555 12.8217,11.5353 C12.9012,11.5713 12.98445,11.61255 13.06545,11.65005 C13.3452,11.78055 13.63095,11.9193 13.9212,12.06705 C14.0427,12.12855 14.16645,12.19305 14.2902,12.2583 C14.64795,12.44655 15.00945,12.6408 15.38295,12.85605 C15.58695,12.9738 15.7842,13.0968 15.9837,13.21755 C16.15995,13.3233 16.3362,13.4298 16.5087,13.5378 C16.66245,13.63455 16.8117,13.73355 16.96245,13.8318 Z" id="Stroke-46" stroke="#B2B2B2" stroke-width="2" stroke-linejoin="round"></path>
                </g>
            </g>
        </g>
    </g>
</svg>