<?xml version="1.0" encoding="UTF-8" standalone="no"?>
<svg width="450px" height="235px" viewBox="0 0 450 235" version="1.1" xmlns="http://www.w3.org/2000/svg" xmlns:xlink="http://www.w3.org/1999/xlink">
    <!-- Generator: Sketch 47.1 (45422) - http://www.bohemiancoding.com/sketch -->
    <title>icon-error</title>
    <desc>Created with Sketch.</desc>
    <defs></defs>
    <g id="Page-1" stroke="none" stroke-width="1" fill="none" fill-rule="evenodd">
        <g id="Group" transform="translate(32.000000, 0.000000)">
            <path d="M197.307683,228 C221.307683,238.5 260.5,221.5 279.5,211 C298.5,200.5 365,200 373.5,170.5 C382,141 343.850633,145.553249 341,130 C338.714606,117.530735 346.342265,111.222917 366,96 C380.836792,84.5104133 381.852054,64.7834144 376.952646,56.6497238 C355.714167,21.3909312 264.253434,14.1042651 197.307683,14.1042651 C157.014558,14.1042651 111,14.1042651 94.5,44.5 C78.8079446,73.407367 83.9370799,81.170275 82.9881614,92.5 C81.8024068,106.657458 72.2207463,123.77808 52.5,130 C24.7366876,138.759359 12.451659,148.386728 9,176 C7.5,188 26.0304928,198.806658 49.5,205 C85.5,214.5 114.20741,183.238169 139.5,192.5 C181.748362,207.970824 179.534116,220.224064 197.307683,228 Z" id="Oval-5" fill="#ECF9FF" opacity="0.400000006"></path>
            <g id="云" transform="translate(69.000000, 0.000000)">
                <path d="M234.816966,83.787504 C234.871103,82.5791801 234.898462,81.3638934 234.898462,80.1422222 C234.898462,35.8808951 198.987566,1.42108547e-14 154.689231,1.42108547e-14 C122.780613,1.42108547e-14 95.2238113,18.616775 82.305258,45.5724868 C76.289221,40.6034739 68.5720369,37.6177778 60.1569231,37.6177778 C40.9459105,37.6177778 25.3723077,53.17837 25.3723077,72.3733333 C25.3723077,76.5652042 26.1150366,80.5837464 27.4761782,84.3047476 C11.0927242,93.364535 2.84217094e-14,110.81015 0,130.844444 C0,160.201447 23.8184513,184 53.2,184 L213.618462,184 C242.547986,184 266,160.567579 266,131.662222 C266,110.295606 253.185697,91.9194295 234.816966,83.787504 Z" id="Combined-Shape" fill="#E2F5FF"></path>
                <path d="M17.9334592,170.902752 C7.15204171,161.158312 0.377380188,147.06366 0.377380188,131.386701 C0.377380188,111.317169 11.4803313,93.8408698 27.8788901,84.7651477 C26.5164936,81.0376018 25.77308,77.0119917 25.77308,72.8127479 C25.77308,53.5840237 41.3610409,37.9960627 60.5897651,37.9960627 C69.0126373,37.9960627 76.7369363,40.9870102 82.7585198,45.9647628 C95.6889834,18.9616402 123.271191,0.312121126 155.209227,0.312121126 C180.888212,0.312121126 203.751344,12.3682237 218.447142,31.1289488 C203.99572,17.1242987 184.295602,8.50428235 162.582172,8.50428235 C130.644136,8.50428235 103.061929,27.1538014 90.1314649,54.1569241 C84.1098814,49.1791714 76.3855824,46.188224 67.9627102,46.188224 C48.733986,46.188224 33.1460251,61.7761849 33.1460251,81.0049091 C33.1460251,85.2041529 33.8894387,89.2297631 35.2518352,92.9573089 C18.8532764,102.033031 7.75032528,119.50933 7.75032528,139.578862 C7.75032528,151.287065 11.529043,162.112702 17.9334592,170.902752 Z" id="Combined-Shape" fill="#C1E7FF" opacity="0.5"></path>
                <path d="M103,87 C103.552558,94.7811104 110.040068,100.922 117.961859,100.922 C125.88365,100.922 132.37116,94.7811104 132.923718,87 C130.049078,92.313126 124.426917,95.9220004 117.961859,95.9220004 C111.496801,95.9220004 105.87464,92.313126 103,87 Z" id="Combined-Shape" fill="#2CBCFB"></path>
                <path d="M153,87 C153.552558,94.7811104 160.040068,100.922 167.961859,100.922 C175.88365,100.922 182.37116,94.7811104 182.923718,87 C180.049078,92.313126 174.426917,95.9220004 167.961859,95.9220004 C161.496801,95.9220004 155.87464,92.313126 153,87 Z" id="Combined-Shape" fill="#2CBCFB"></path>
                <path d="M141.5,133.5 C152.305739,133.5 164.730758,135.701917 168,137.5 C178,143 183,137.729649 183,132.5 C183,123.671875 167.509668,117 141,117 C114.490332,117 99,123.758789 99,132.5 C99,137.275103 102.712923,140.113269 111.5,139 C118.798377,138.07534 129.471894,133.5 141.5,133.5 Z" id="Oval-4" stroke="#2CBCFB" stroke-width="3" fill="#FFFFFF"></path>
                <path d="M102,133.895802 C120.345631,127.597031 136.012298,125.097031 149,126.395802 C154,126.895802 156.5,125.895802 158,123.895802 C159.5,121.895802 161,123.395802 161.5,126.895802 C162,130.395802 163.5,132.895802 165.5,130.395802 C167.5,127.895802 170.5,126.5 171.5,128.447901 C172.5,130.395802 177,131.395802 180.5,133.895802" id="Path-2" stroke="#2CBCFB" stroke-width="2" stroke-linecap="round" stroke-linejoin="round"></path>
            </g>
            <g id="Group-4" transform="translate(354.000000, 109.000000) scale(1, -1) translate(-354.000000, -109.000000) translate(321.000000, 13.000000)">
                <circle id="Oval-32" fill="#D6F0FF" cx="26.5470693" cy="186.547069" r="4.54706927"></circle>
                <circle id="Oval-32" fill="#D6F0FF" cx="19" cy="140" r="3"></circle>
                <circle id="Oval-32" fill="#D6F0FF" cx="37" cy="39" r="3"></circle>
                <ellipse id="Oval-32" fill="#D6F0FF" cx="21.6838366" cy="44.6877202" rx="5.68383659" ry="5.68772024"></ellipse>
                <circle id="Oval-32" fill="#D6F0FF" cx="31" cy="84" r="4"></circle>
                <circle id="Oval-32" fill="#D6F0FF" cx="6" cy="119" r="6"></circle>
                <circle id="Oval-32-Copy-3" fill="#D6F0FF" opacity="0.5" cx="32" cy="5" r="5"></circle>
                <circle id="Oval-32-Copy-4" fill="#EAF7FF" cx="10.9382716" cy="75.0194182" r="4.9382716"></circle>
                <path d="M50.2472492,127.443763 C49.2598621,126.954659 47.6562209,126.956031 46.6716042,127.443763 L41.6215917,129.945296 C37.6639061,131.905743 36.0034723,130.274956 37.9180224,126.292193 L40.3343516,121.265599 C40.8138691,120.268077 40.8106831,118.644148 40.3343516,117.653255 L37.9180224,112.62666 C36.0057616,108.64866 37.6683361,107.015305 41.6215917,108.973557 L46.6716042,111.475091 C47.6589913,111.964195 49.2626325,111.962823 50.2472492,111.475091 L55.2972617,108.973557 C59.2549473,107.01311 60.9153811,108.643898 59.000831,112.62666 L56.5845018,117.653255 C56.1049842,118.650776 56.1081703,120.274705 56.5845018,121.265599 L59.000831,126.292193 C60.9130918,130.270193 59.2505173,131.903549 55.2972617,129.945296 L50.2472492,127.443763 Z" id="Star-Copy-2" fill="#D2F0FF" transform="translate(48.459427, 119.459427) rotate(-315.000000) translate(-48.459427, -119.459427) "></path>
            </g>
            <g id="Group-4" transform="translate(39.000000, 134.000000) scale(1, -1) translate(-39.000000, -134.000000) translate(0.000000, 38.000000)">
                <circle id="Oval-32" fill="#D6F0FF" cx="75" cy="189" r="3"></circle>
                <circle id="Oval-32" fill="#D6F0FF" cx="56" cy="78" r="3"></circle>
                <circle id="Oval-32" fill="#D6F0FF" cx="36" cy="121" r="4"></circle>
                <circle id="Oval-32-Copy-3" fill="#D6F0FF" opacity="0.5" cx="40" cy="5" r="5"></circle>
                <circle id="Oval-32-Copy-4" fill="#EAF7FF" cx="4.9382716" cy="103.938272" r="4.9382716"></circle>
                <path d="M62.4315562,49.1202932 L57.5395636,51.5435511 L57.5395636,51.5435511 C57.0446684,51.7886984 56.4447455,51.5862377 56.1995982,51.0913425 C56.0628919,50.8153645 56.0609786,50.4917891 56.1944116,50.2142137 L58.5525436,45.308685 L58.5525436,45.308685 C58.6841788,45.0348495 58.6841788,44.7160197 58.5525436,44.4421842 L56.1944116,39.5366555 L56.1944116,39.5366555 C55.955134,39.0388959 56.1646751,38.4414091 56.6624348,38.2021316 C56.9400102,38.0686986 57.2635856,38.0706119 57.5395636,38.2073182 L62.4315562,40.6305761 L62.4315562,40.6305761 C62.7112576,40.7691267 63.0396116,40.7691267 63.319313,40.6305761 L68.2113056,38.2073182 L68.2113056,38.2073182 C68.7062008,37.9621709 69.3061238,38.1646316 69.5512711,38.6595267 C69.6879773,38.9355047 69.6898906,39.2590802 69.5564577,39.5366555 L67.1983256,44.4421842 L67.1983256,44.4421842 C67.0666904,44.7160197 67.0666904,45.0348495 67.1983256,45.308685 L69.5564577,50.2142137 L69.5564577,50.2142137 C69.7957352,50.7119734 69.5861941,51.3094601 69.0884344,51.5487377 C68.8108591,51.6821707 68.4872836,51.6802573 68.2113056,51.5435511 L63.319313,49.1202932 L63.319313,49.1202932 C63.0396116,48.9817425 62.7112576,48.9817425 62.4315562,49.1202932 Z" id="Star-Copy-2" fill="#BFEAFF" transform="translate(62.875435, 44.875435) rotate(-299.000000) translate(-62.875435, -44.875435) "></path>
            </g>
        </g>
    </g>
</svg>