<?xml version="1.0" encoding="UTF-8"?>
<svg width="157px" height="116px" viewBox="0 0 157 116" version="1.1" xmlns="http://www.w3.org/2000/svg" xmlns:xlink="http://www.w3.org/1999/xlink">
    <!-- Generator: Sketch 48.2 (47327) - http://www.bohemiancoding.com/sketch -->
    <title>ic_logo_gray</title>
    <desc>Created with Sketch.</desc>
    <defs></defs>
    <g id="Page-1" stroke="none" stroke-width="1" fill="none" fill-rule="evenodd">
        <path d="M112.201183,102.284689 C113.446507,101.267144 114.649801,100.200111 115.801573,99.0781665 C126.728155,88.4329174 132.745979,73.8456111 132.745979,58.0021343 C132.745979,56.351419 132.680899,54.7203632 132.559553,53.1089668 C138.880402,58.1831367 142.937027,65.9662422 142.937027,74.684188 C142.937027,90.9635622 131.236947,101.355272 112.201183,102.284689 Z M51.7233151,102.359938 C39.1629651,102.359938 29.0458093,99.320181 22.4659973,93.5680993 C16.6935783,88.5224017 13.6429751,81.3541623 13.6429751,72.8382342 C13.6429751,63.8301421 16.8359397,56.0104294 22.6320857,50.8189807 C27.1144386,46.804387 32.7892383,44.6709986 38.8497699,44.6709986 C39.8083372,44.6709986 40.7770731,44.7245536 41.7512324,44.8316637 C48.9499779,45.6275321 54.544784,49.0448855 57.1032232,54.2092177 C58.9810389,57.9994226 58.8779963,62.1387521 56.8198561,65.5649184 C55.2186284,68.2304676 53.0418536,69.8737258 50.3485099,70.4492729 C47.2382506,71.1149823 43.4595702,70.3109789 40.7208065,68.4026572 L33.8901671,80.234252 C39.6069974,83.8407428 46.7372737,85.1721616 53.2011628,83.7912552 C59.6460704,82.4130605 64.9419174,78.5394725 68.5158685,72.5894405 C72.9480559,65.2083368 73.2524383,56.0734752 69.3286847,48.1527536 C65.1425793,39.7032608 57.0544135,33.8806763 46.8267581,31.8259256 C48.4795071,28.1923183 50.8250819,24.9654581 53.8194184,22.2422864 C59.9172351,16.6976457 68.4840066,13.643653 77.9408763,13.643653 C89.2077706,13.643653 99.6130389,18.1883738 107.238191,26.4412721 C114.889104,34.7226428 119.103003,45.9312366 119.103003,58.0021343 C119.103003,70.133366 114.54947,81.2511197 106.281657,89.3053899 C97.514224,97.8457228 85.4412926,102.359938 71.3671655,102.359938 L51.7233151,102.359938 Z M128.652069,35.6059619 C120.527974,14.5100243 101.131561,0 77.9408763,0 C65.0815673,0 53.2560737,4.31423074 44.6404925,12.1488575 C38.8809538,17.3864041 34.7117962,24.0509551 32.3987611,31.5534051 C25.4135578,32.7228029 18.932721,35.8181483 13.5297639,40.6557269 C4.80503889,48.4700163 0,59.8989315 0,72.8382342 C0,85.4067191 4.66403324,96.1272164 13.4863775,103.839819 C22.5893773,111.797148 35.8113691,116.003591 51.7233151,116.003591 L71.3671655,116.003591 C71.4647848,116.003591 71.5610483,116.000879 71.6579897,116.000201 L71.6579897,116.003591 L109.378358,116.003591 C137.611352,116.003591 156.580002,99.3981409 156.580002,74.684188 C156.580002,56.5873323 144.881278,41.1811086 128.652069,35.6059619 Z" id="ic_logo_gray" fill="#DEDEDE"></path>
    </g>
</svg>