<?xml version="1.0" encoding="UTF-8"?>
<svg width="100px" height="100px" viewBox="0 0 100 100" version="1.1" xmlns="http://www.w3.org/2000/svg" xmlns:xlink="http://www.w3.org/1999/xlink">
    <!-- Generator: Sketch 52.3 (67297) - http://www.bohemiancoding.com/sketch -->
    <title>Slice</title>
    <desc>Created with Sketch.</desc>
    <g id="Page-1" stroke="none" stroke-width="1" fill="none" fill-rule="evenodd">
        <g id="压缩包预览">
            <rect id="Rectangle" fill-rule="nonzero" x="0" y="0" width="100" height="100"></rect>
            <path d="M42,86 L17.9982843,86 C16.897203,86 16,85.1041939 16,83.9991611 L16,16.0008389 C16,14.8973133 16.8946623,14 17.9982843,14 L42,14 L42,21 C42,21.5522847 42.4477153,22 43,22 L50,22 L50,14 L82.0017157,14 C83.102797,14 84,14.8958061 84,16.0008389 L84,83.9991611 C84,85.1026867 83.1053377,86 82.0017157,86 L50,86 L50,78 L43,78 C42.4477153,78 42,78.4477153 42,79 L42,86 Z M58,22.9970301 C58,22.4463856 57.5469637,22 57.0029699,22 L50,22 L50,30 L57.0029699,30 C57.5536144,30 58,29.5469637 58,29.0029699 L58,22.9970301 Z M58,38.9970301 C58,38.4463856 57.5469637,38 57.0029699,38 L50,38 L50,46 L57.0029699,46 C57.5536144,46 58,45.5469637 58,45.0029699 L58,38.9970301 Z M58,54.9970301 C58,54.4463856 57.5469637,54 57.0029699,54 L50,54 L50,62 L57.0029699,62 C57.5536144,62 58,61.5469637 58,61.0029699 L58,54.9970301 Z M58,70.9970301 C58,70.4463856 57.5469637,70 57.0029699,70 L50,70 L50,78 L57.0029699,78 C57.5536144,78 58,77.5469637 58,77.0029699 L58,70.9970301 Z M42,30.9970301 L42,37.0029699 C42,37.5469637 42.4463856,38 42.9970301,38 L50,38 L50,30 L42.9970301,30 C42.4530363,30 42,30.4463856 42,30.9970301 Z M42,46.9970301 L42,53.0029699 C42,53.5469637 42.4463856,54 42.9970301,54 L50,54 L50,46 L42.9970301,46 C42.4530363,46 42,46.4463856 42,46.9970301 Z M42,62.9970301 L42,69.0029699 C42,69.5469637 42.4463856,70 42.9970301,70 L50,70 L50,62 L42.9970301,62 C42.4530363,62 42,62.4463856 42,62.9970301 Z" id="Combined-Shape" fill="#4C94F0"></path>
        </g>
    </g>
</svg>