<?xml version="1.0" encoding="utf-8"?>
<!-- Generator: Adobe Illustrator 22.0.0, SVG Export Plug-In . SVG Version: 6.00 Build 0)  -->
<svg version="1.1" id="图层_1" xmlns="http://www.w3.org/2000/svg" xmlns:xlink="http://www.w3.org/1999/xlink" x="0px" y="0px"
	 viewBox="0 0 160 130" style="enable-background:new 0 0 160 130;" xml:space="preserve">
<style type="text/css">
	.st0{fill:none;}
	.st1{fill:#FFFFFF;}
	.st2{fill:none;stroke:#B2B2B2;}
	.st3{fill:#E4E4E4;}
</style>
<title>Slice</title>
<desc>Created with Sketch.</desc>
<g id="Page-1">
	
		<g id="Group-6" transform="translate(79.000000, 65.000000) rotate(-90.000000) translate(-79.000000, -65.000000) translate(-1.000000, -15.000000)">
		
			<rect id="Rectangle-3" transform="matrix(-2.535182e-06 -1 1 -2.535182e-06 2.028148e-04 160.0002)" class="st0" width="160" height="160"/>
		<g id="Combined-Shape">
			<g>
				<path id="path-1" class="st1" d="M18,100v-8h1.5c6.3-16,31-28,60.5-28s54.2,12,60.5,28h1.5v8c0,19.9-27.8,36-62,36
					S18,119.9,18,100z"/>
			</g>
			<path class="st2" d="M141.5,92.5h-1.4l-0.1-0.3c-6.3-16-31.1-27.7-60-27.7S26.3,76.1,20,92.2l-0.1,0.3h-1.4v7.5
				c0,19.5,27.5,35.5,61.5,35.5s61.5-16,61.5-35.5V92.5z"/>
		</g>
		<g id="Oval-5">
			<g>
				
					<ellipse id="path-2" transform="matrix(-2.535182e-06 -1 1 -2.535182e-06 -11.9998 172.0002)" class="st1" cx="80" cy="92" rx="36" ry="62"/>
			</g>
			
				<ellipse transform="matrix(-2.535182e-06 -1 1 -2.535182e-06 -11.9998 172.0002)" class="st2" cx="80" cy="92" rx="35.5" ry="61.5"/>
		</g>
		<path id="Combined-Shape_1_" class="st3" d="M80,118c-24.9,0-45-11.6-45-26s20.1-26,45-26s45,11.6,45,26S104.9,118,80,118z
			 M80,107.4c15.5,0,28-6.9,28-15.4S95.5,76.6,80,76.6S52,83.5,52,92S64.5,107.4,80,107.4z"/>
		
			<ellipse id="Oval-5_1_" transform="matrix(-2.535182e-06 -1 1 -2.535182e-06 -11.9998 172.0002)" class="st3" cx="80" cy="92" rx="6" ry="11"/>
		<g id="Combined-Shape_2_">
			<g>
				<path id="path-3" class="st1" d="M77,92V12h6v80c0,1.1-1.3,2-3,2S77,93.1,77,92z"/>
			</g>
			<path class="st2" d="M82.5,12.5h-5V92c0,0.8,1.1,1.5,2.5,1.5s2.5-0.7,2.5-1.5V12.5z"/>
		</g>
		<g id="Oval-4">
			<g>
				
					<ellipse id="path-4" transform="matrix(-2.535182e-06 -1 1 -2.535182e-06 68.0002 92)" class="st1" cx="80" cy="12" rx="2" ry="3"/>
			</g>
			<ellipse transform="matrix(-2.535182e-06 -1 1 -2.535182e-06 68.0002 92)" class="st2" cx="80" cy="12" rx="1.5" ry="2.5"/>
		</g>
		<g id="Rectangle-14">
			<g>
				<polygon id="path-5" class="st1" points="66,0 78,12 78,46 66,34 				"/>
			</g>
			<path class="st2" d="M66.5,1.2v32.6l11,11V12.2L66.5,1.2z"/>
		</g>
		<g id="Rectangle-14-Copy">
			<g>
				<polygon id="path-6" class="st1" points="82,12 94,0 94,34 82,46 				"/>
			</g>
			<path class="st2" d="M82.5,12.2v32.6l11-11V1.2L82.5,12.2z"/>
		</g>
	</g>
</g>
</svg>
