<?xml version="1.0" encoding="UTF-8"?>
<svg width="300px" height="242px" viewBox="0 0 300 242" version="1.1" xmlns="http://www.w3.org/2000/svg" xmlns:xlink="http://www.w3.org/1999/xlink">
    <!-- Generator: Sketch 52.3 (67297) - http://www.bohemiancoding.com/sketch -->
    <title>icon-limit</title>
    <desc>Created with Sketch.</desc>
    <g id="Page-1" stroke="none" stroke-width="1" fill="none" fill-rule="evenodd">
        <g id="Group-5">
            <rect id="Rectangle" opacity="0.54250372" fill-rule="nonzero" x="0" y="0" width="300" height="242"></rect>
            <g id="Group-51" transform="translate(9.000000, 21.250000)">
                <polygon id="Stroke-1" stroke="#B2B2B2" stroke-width="2" stroke-linejoin="round" points="7.5e-05 140.263275 101.824575 199.051275 281.718825 93.343275 180.931575 35.084775"></polygon>
                <g id="Group-2" transform="translate(2.000000, 14.000000)">
                    <path d="M37.293025,61.36885 C36.369775,50.2786 28.975525,41.9611 28.975525,37.34035 C28.975525,32.7196 33.596275,19.7806 31.748275,14.23585 C29.900275,8.69035 26.203525,7.76635 22.506025,7.76635 C18.809275,7.76635 15.113275,8.69035 13.264525,14.23585 C11.416525,19.7806 16.037275,32.7196 16.037275,37.34035 C16.037275,41.9611 8.643775,50.2786 7.719025,61.36885 C6.795025,72.4591 14.119525,89.5021 16.557025,91.98235 C18.217525,93.6721 20.947525,93.72385 22.506025,93.7006 C24.065275,93.6781 26.795275,93.5806 28.455775,91.98235 C30.962275,89.5711 38.217025,72.4591 37.293025,61.36885" id="Fill-3" fill="#FFFFFF"></path>
                    <path d="M37.293025,61.36885 C36.369775,50.2786 28.975525,41.9611 28.975525,37.34035 C28.975525,32.7196 33.596275,19.7806 31.748275,14.23585 C29.900275,8.69035 26.203525,7.76635 22.506025,7.76635 C18.809275,7.76635 15.113275,8.69035 13.264525,14.23585 C11.416525,19.7806 16.037275,32.7196 16.037275,37.34035 C16.037275,41.9611 8.643775,50.2786 7.719025,61.36885 C6.795025,72.4591 14.119525,89.5021 16.557025,91.98235 C18.217525,93.6721 20.947525,93.72385 22.506025,93.7006 C24.065275,93.6781 26.795275,93.5806 28.455775,91.98235 C30.962275,89.5711 38.217025,72.4591 37.293025,61.36885 Z" id="Stroke-5" stroke="#B2B2B2" stroke-width="2" stroke-linejoin="round"></path>
                    <path d="M3.4486,0.148675 L8.81035,4.431175" id="Stroke-9" stroke="#B2B2B2" stroke-width="2" stroke-linecap="round" stroke-linejoin="round"></path>
                    <path d="M0.6844,6.718525 L7.63915,9.084775" id="Stroke-11" stroke="#B2B2B2" stroke-width="2" stroke-linecap="round" stroke-linejoin="round"></path>
                    <path d="M0.751825,14.466775 L6.907825,13.740775" id="Stroke-13" stroke="#B2B2B2" stroke-width="2" stroke-linecap="round" stroke-linejoin="round"></path>
                    <path d="M29.44075,41.2555 C28.822,39.74425 28.4245,38.8915 28.408,38.02 C28.393,37.18825 28.5895,34.99825 28.612,34.70425 C27.12475,35.43925 24.83125,35.98525 22.432,35.98525 C20.113,35.98525 17.8885,35.4745 16.40875,34.78225 C16.45225,34.84075 16.7365,36.62725 16.612,37.89175 C16.4935,39.08875 16.192,39.74425 15.57325,41.2555 C17.092,42.238 19.62175,42.8875 22.507,42.8875 C25.39225,42.8875 27.922,42.238 29.44075,41.2555" id="Fill-7" fill="#2980FF"></path>
                </g>
                <path d="M182.295525,53.6028 C181.371525,42.51255 173.977275,34.19505 173.977275,29.5743 C173.977275,24.95355 178.598025,12.01455 176.750025,6.4698 C174.902025,0.9243 171.205275,0.0003 167.508525,0.0003 C163.811025,0.0003 160.115025,0.9243 158.266275,6.4698 C156.418275,12.01455 161.039025,24.95355 161.039025,29.5743 C161.039025,34.19505 153.645525,42.51255 152.721525,53.6028 C151.797525,64.69305 159.121275,81.73605 161.559525,84.2163 C163.219275,85.90605 165.949275,85.9578 167.508525,85.93455 C169.067025,85.91205 171.797025,85.81455 173.458275,84.2163 C175.964775,81.80505 183.219525,64.69305 182.295525,53.6028" id="Fill-15" fill="#FFFFFF"></path>
                <path d="M182.295525,53.6028 C181.371525,42.51255 173.977275,34.19505 173.977275,29.5743 C173.977275,24.95355 178.598025,12.01455 176.750025,6.4698 C174.902025,0.9243 171.205275,0.0003 167.508525,0.0003 C163.811025,0.0003 160.115025,0.9243 158.266275,6.4698 C156.418275,12.01455 161.039025,24.95355 161.039025,29.5743 C161.039025,34.19505 153.645525,42.51255 152.721525,53.6028 C151.797525,64.69305 159.121275,81.73605 161.559525,84.2163 C163.219275,85.90605 165.949275,85.9578 167.508525,85.93455 C169.067025,85.91205 171.797025,85.81455 173.458275,84.2163 C175.964775,81.80505 183.219525,64.69305 182.295525,53.6028 Z" id="Stroke-17" stroke="#B2B2B2" stroke-width="2" stroke-linejoin="round"></path>
                <path d="M174.4425,33.489375 C173.82375,31.978125 173.42625,31.125375 173.40975,30.253875 C173.39475,29.422125 173.59125,27.232125 173.61375,26.938125 C172.1265,27.673125 169.833,28.219125 167.43375,28.219125 C165.11475,28.219125 162.891,27.708375 161.4105,27.016125 C161.454,27.074625 161.73825,28.861125 161.61375,30.125625 C161.49525,31.322625 161.19375,31.978125 160.575,33.489375 C162.09375,34.471875 164.6235,35.121375 167.50875,35.121375 C170.394,35.121375 172.92375,34.471875 174.4425,33.489375" id="Fill-19" fill="#2980FF"></path>
                <path d="M204.138775,66.671775 C203.214775,55.581525 195.821275,47.264025 195.821275,42.642525 C195.821275,38.021775 200.442025,25.083525 198.593275,19.538025 C196.745275,13.993275 193.048525,13.069275 189.351775,13.069275 C185.655025,13.069275 181.958275,13.993275 180.110275,19.538025 C178.261525,25.083525 182.882275,38.021775 182.882275,42.642525 C182.882275,47.264025 175.489525,55.581525 174.564775,66.671775 C173.640775,77.762025 180.964525,94.805025 183.402775,97.285275 C185.062525,98.975025 187.792525,99.026775 189.351775,99.003525 C190.910275,98.981025 193.641025,98.882775 195.301525,97.285275 C197.808025,94.874025 205.062775,77.762025 204.138775,66.671775" id="Fill-21" fill="#FFFFFF"></path>
                <path d="M204.138775,66.671775 C203.214775,55.581525 195.821275,47.264025 195.821275,42.642525 C195.821275,38.021775 200.442025,25.083525 198.593275,19.538025 C196.745275,13.993275 193.048525,13.069275 189.351775,13.069275 C185.655025,13.069275 181.958275,13.993275 180.110275,19.538025 C178.261525,25.083525 182.882275,38.021775 182.882275,42.642525 C182.882275,47.264025 175.489525,55.581525 174.564775,66.671775 C173.640775,77.762025 180.964525,94.805025 183.402775,97.285275 C185.062525,98.975025 187.792525,99.026775 189.351775,99.003525 C190.910275,98.981025 193.641025,98.882775 195.301525,97.285275 C197.808025,94.874025 205.062775,77.762025 204.138775,66.671775 Z" id="Stroke-23" stroke="#B2B2B2" stroke-width="2" stroke-linejoin="round"></path>
                <path d="M196.2865,46.557975 C195.66775,45.046725 195.27025,44.193975 195.253,43.322475 C195.238,42.490725 195.43525,40.300725 195.45775,40.006725 C193.9705,40.742475 191.677,41.287725 189.27775,41.287725 C186.958,41.287725 184.73425,40.776975 183.25375,40.084725 C183.298,40.143225 183.5815,41.929725 183.45775,43.194225 C183.33925,44.391225 183.037,45.046725 182.41825,46.557975 C183.93775,47.540475 186.46675,48.189975 189.352,48.189975 C192.23725,48.189975 194.767,47.540475 196.2865,46.557975" id="Fill-25" fill="#2980FF"></path>
                <path d="M174.361875,70.23825 C173.437875,59.148 166.044375,50.8305 166.044375,46.209 C166.044375,41.58825 170.665125,28.65 168.816375,23.1045 C166.968375,17.55975 163.271625,16.63575 159.574875,16.63575 C155.878125,16.63575 152.181375,17.55975 150.333375,23.1045 C148.484625,28.65 153.105375,41.58825 153.105375,46.209 C153.105375,50.8305 145.712625,59.148 144.787875,70.23825 C143.863875,81.3285 151.187625,98.3715 153.625875,100.85175 C155.285625,102.5415 158.015625,102.59325 159.574875,102.57 C161.133375,102.5475 163.863375,102.44925 165.524625,100.85175 C168.031125,98.4405 175.285875,81.3285 174.361875,70.23825" id="Fill-27" fill="#FFFFFF"></path>
                <path d="M174.361875,70.23825 C173.437875,59.148 166.044375,50.8305 166.044375,46.209 C166.044375,41.58825 170.665125,28.65 168.816375,23.1045 C166.968375,17.55975 163.271625,16.63575 159.574875,16.63575 C155.878125,16.63575 152.181375,17.55975 150.333375,23.1045 C148.484625,28.65 153.105375,41.58825 153.105375,46.209 C153.105375,50.8305 145.712625,59.148 144.787875,70.23825 C143.863875,81.3285 151.187625,98.3715 153.625875,100.85175 C155.285625,102.5415 158.015625,102.59325 159.574875,102.57 C161.133375,102.5475 163.863375,102.44925 165.524625,100.85175 C168.031125,98.4405 175.285875,81.3285 174.361875,70.23825 Z" id="Stroke-29" stroke="#B2B2B2" stroke-width="2" stroke-linejoin="round"></path>
                <path d="M166.50885,50.124525 C165.8901,48.613275 165.49335,47.760525 165.4761,46.889025 C165.4611,46.057275 165.65835,43.867275 165.68085,43.573275 C164.19285,44.309025 161.9001,44.854275 159.5001,44.854275 C157.1811,44.854275 154.95735,44.343525 153.47685,43.651275 C153.5211,43.709775 153.8046,45.496275 153.6801,46.760775 C153.56235,47.957775 153.2601,48.613275 152.64135,50.124525 C154.1601,51.107025 156.68985,51.756525 159.5751,51.756525 C162.46035,51.756525 164.9901,51.107025 166.50885,50.124525" id="Fill-31" fill="#2980FF"></path>
                <path d="M166.67805,87.591525 C165.75405,76.501275 158.3598,68.183775 158.3598,63.562275 C158.3598,58.941525 162.98055,46.003275 161.13255,40.457775 C159.28455,34.913025 155.5878,33.989025 151.89105,33.989025 C148.19355,33.989025 144.49755,34.913025 142.6488,40.457775 C140.8008,46.003275 145.42155,58.941525 145.42155,63.562275 C145.42155,68.183775 138.02805,76.501275 137.10405,87.591525 C136.18005,98.681775 143.5038,115.724775 145.94205,118.205025 C147.6018,119.894775 150.3318,119.946525 151.89105,119.923275 C153.44955,119.900775 156.17955,119.802525 157.8408,118.205025 C160.3473,115.793775 167.60205,98.681775 166.67805,87.591525" id="Fill-33" fill="#FFFFFF"></path>
                <path d="M166.67805,87.591525 C165.75405,76.501275 158.3598,68.183775 158.3598,63.562275 C158.3598,58.941525 162.98055,46.003275 161.13255,40.457775 C159.28455,34.913025 155.5878,33.989025 151.89105,33.989025 C148.19355,33.989025 144.49755,34.913025 142.6488,40.457775 C140.8008,46.003275 145.42155,58.941525 145.42155,63.562275 C145.42155,68.183775 138.02805,76.501275 137.10405,87.591525 C136.18005,98.681775 143.5038,115.724775 145.94205,118.205025 C147.6018,119.894775 150.3318,119.946525 151.89105,119.923275 C153.44955,119.900775 156.17955,119.802525 157.8408,118.205025 C160.3473,115.793775 167.60205,98.681775 166.67805,87.591525 Z" id="Stroke-35" stroke="#B2B2B2" stroke-width="2" stroke-linejoin="round"></path>
                <path d="M158.825025,67.4778 C158.206275,65.96655 157.808775,65.1138 157.792275,64.2423 C157.777275,63.41055 157.973775,61.22055 157.996275,60.92655 C156.509025,61.6623 154.216275,62.20755 151.816275,62.20755 C149.497275,62.20755 147.273525,61.69755 145.793025,61.00455 C145.837275,61.06305 146.120775,62.84955 145.996275,64.11405 C145.877775,65.31105 145.576275,65.9673 144.957525,67.4778 C146.476275,68.4603 149.006025,69.1098 151.891275,69.1098 C154.776525,69.1098 157.306275,68.4603 158.825025,67.4778" id="Fill-37" fill="#2980FF"></path>
                <path d="M196.238625,82.953825 C195.314625,71.863575 187.921125,63.546075 187.921125,58.925325 C187.921125,54.303825 192.541875,41.365575 190.693125,35.820825 C188.845125,30.275325 185.148375,29.351325 181.451625,29.351325 C177.754875,29.351325 174.058125,30.275325 172.210125,35.820825 C170.361375,41.365575 174.982125,54.303825 174.982125,58.925325 C174.982125,63.546075 167.589375,71.863575 166.664625,82.953825 C165.740625,94.044075 173.064375,111.087075 175.502625,113.567325 C177.162375,115.257075 179.892375,115.308825 181.451625,115.285575 C183.010125,115.263075 185.740125,115.165575 187.401375,113.567325 C189.907875,111.156075 197.162625,94.044075 196.238625,82.953825" id="Fill-39" fill="#FFFFFF"></path>
                <path d="M196.238625,82.953825 C195.314625,71.863575 187.921125,63.546075 187.921125,58.925325 C187.921125,54.303825 192.541875,41.365575 190.693125,35.820825 C188.845125,30.275325 185.148375,29.351325 181.451625,29.351325 C177.754875,29.351325 174.058125,30.275325 172.210125,35.820825 C170.361375,41.365575 174.982125,54.303825 174.982125,58.925325 C174.982125,63.546075 167.589375,71.863575 166.664625,82.953825 C165.740625,94.044075 173.064375,111.087075 175.502625,113.567325 C177.162375,115.257075 179.892375,115.308825 181.451625,115.285575 C183.010125,115.263075 185.740125,115.165575 187.401375,113.567325 C189.907875,111.156075 197.162625,94.044075 196.238625,82.953825 Z" id="Stroke-41" stroke="#B2B2B2" stroke-width="2" stroke-linejoin="round"></path>
                <path d="M188.3856,62.8401 C187.76685,61.32885 187.36935,60.47685 187.35285,59.6046 C187.33785,58.77285 187.5351,56.5836 187.55685,56.28885 C186.0696,57.0246 183.77685,57.56985 181.37685,57.56985 C179.05785,57.56985 176.8341,57.05985 175.3536,56.36685 C175.39785,56.42535 175.68135,58.21185 175.55685,59.47635 C175.4391,60.67335 175.13685,61.3296 174.5181,62.8401 C176.03685,63.82335 178.5666,64.47285 181.45185,64.47285 C184.3371,64.47285 186.86685,63.8226 188.3856,62.8401" id="Fill-43" fill="#2980FF"></path>
                <path d="M226.483025,78.61095 C225.559025,67.5207 218.165525,59.2032 218.165525,54.58245 C218.165525,49.9617 222.786275,37.0227 220.937525,31.47795 C219.090275,25.93245 215.392775,25.00845 211.696025,25.00845 C207.999275,25.00845 204.303275,25.93245 202.454525,31.47795 C200.605775,37.0227 205.226525,49.9617 205.226525,54.58245 C205.226525,59.2032 197.833775,67.5207 196.909025,78.61095 C195.985025,89.7012 203.308775,106.7442 205.747025,109.22445 C207.407525,110.9142 210.137525,110.96595 211.696025,110.9427 C213.255275,110.9202 215.985275,110.8227 217.645775,109.22445 C220.152275,106.8132 227.407025,89.7012 226.483025,78.61095" id="Fill-45" fill="#FFFFFF"></path>
                <path d="M226.483025,78.61095 C225.559025,67.5207 218.165525,59.2032 218.165525,54.58245 C218.165525,49.9617 222.786275,37.0227 220.937525,31.47795 C219.090275,25.93245 215.392775,25.00845 211.696025,25.00845 C207.999275,25.00845 204.303275,25.93245 202.454525,31.47795 C200.605775,37.0227 205.226525,49.9617 205.226525,54.58245 C205.226525,59.2032 197.833775,67.5207 196.909025,78.61095 C195.985025,89.7012 203.308775,106.7442 205.747025,109.22445 C207.407525,110.9142 210.137525,110.96595 211.696025,110.9427 C213.255275,110.9202 215.985275,110.8227 217.645775,109.22445 C220.152275,106.8132 227.407025,89.7012 226.483025,78.61095 Z" id="Stroke-47" stroke="#B2B2B2" stroke-width="2" stroke-linejoin="round"></path>
                <path d="M218.630675,58.497525 C218.011925,56.986275 217.614425,56.133525 217.597925,55.262025 C217.582925,54.430275 217.779425,52.240275 217.801925,51.946275 C216.314675,52.681275 214.021175,53.227275 211.621925,53.227275 C209.302925,53.227275 207.078425,52.716525 205.598675,52.024275 C205.642175,52.082775 205.926425,53.869275 205.801925,55.133775 C205.683425,56.330775 205.381925,56.986275 204.762425,58.497525 C206.281925,59.480025 208.811675,60.129525 211.696175,60.129525 C214.582175,60.129525 217.111925,59.480025 218.630675,58.497525" id="Fill-49" fill="#2980FF"></path>
            </g>
        </g>
    </g>
</svg>